<svg width="1024" height="1024" viewBox="0 0 1024 1024" fill="none" xmlns="http://www.w3.org/2000/svg">
<path d="M549.083 447.946C553.769 443.26 561.367 443.26 566.053 447.946C578.92 460.813 587.682 477.206 591.232 495.052C594.782 512.898 592.96 531.396 585.997 548.207C579.034 565.018 567.241 579.386 552.112 589.495C536.983 599.604 519.196 605 501 605C482.804 605 465.017 599.604 449.887 589.495C434.758 579.386 422.966 565.018 416.003 548.207C409.039 531.396 407.217 512.898 410.767 495.052C414.317 477.206 423.08 460.813 435.946 447.946C440.632 443.26 448.23 443.26 452.917 447.946C457.603 452.633 457.603 460.231 452.917 464.917C443.407 474.427 436.93 486.543 434.306 499.733C431.683 512.924 433.029 526.597 438.175 539.022C443.322 551.448 452.039 562.068 463.221 569.54C474.404 577.012 487.551 581 501 581C514.449 581 527.596 577.012 538.778 569.54C549.961 562.068 558.677 551.448 563.824 539.022C568.971 526.597 570.317 512.924 567.693 499.733C565.069 486.543 558.593 474.427 549.083 464.917C544.397 460.231 544.397 452.633 549.083 447.946Z" fill="white"/>
<path d="M501 411C507.627 411 513 416.373 513 423V483C513 489.627 507.627 495 501 495C494.372 495 489 489.627 489 483V423C489 416.373 494.372 411 501 411Z" fill="white"/>
</svg>
